<svg width="753" height="287" viewBox="0 0 753 287" fill="none" xmlns="http://www.w3.org/2000/svg">
<path fill-rule="evenodd" clip-rule="evenodd" d="M617.299 69.5767H695.572V4.34885C695.572 1.94656 697.519 0.000485544 699.921 0.000485544C702.322 0.000485544 704.269 1.94659 704.269 4.34885V69.5767H730.335C742.356 69.5767 752.103 79.3137 752.103 91.3292V104.354C752.103 114.879 744.644 123.649 734.709 125.669V171.765C734.709 201.771 710.355 226.121 680.373 226.121H660.018C643.173 262.85 606.366 287 565.119 287C507.481 287 460.756 240.275 460.756 182.637C460.756 180.235 462.703 178.289 465.104 178.289C467.506 178.289 469.453 180.235 469.453 182.637C469.453 235.473 512.283 278.303 565.119 278.303C601.554 278.303 634.212 257.746 650.357 226.121H632.501C602.49 226.121 578.165 201.788 578.165 171.765V125.666C568.24 123.643 560.771 114.871 560.771 104.353V91.3287C560.771 79.3067 570.502 69.5762 582.539 69.5762H608.604V4.34836C608.604 1.94608 610.551 0 612.953 0C615.354 0 617.301 1.9461 617.301 4.34836L617.299 69.5767ZM617.299 78.2734V95.6671C617.299 98.0684 615.352 100.015 612.951 100.015C610.549 100.015 608.603 98.0684 608.603 95.6671V78.2734H582.537C575.302 78.2734 569.466 84.1108 569.466 91.3289V104.353C569.466 111.564 575.317 117.41 582.537 117.41H730.335C737.569 117.41 743.406 111.572 743.406 104.353V91.3289C743.406 84.1193 737.554 78.2734 730.335 78.2734H704.269V95.6671C704.269 98.0684 702.322 100.015 699.921 100.015C697.519 100.015 695.572 98.0684 695.572 95.6671V78.2734H617.299ZM726.011 126.108H586.859V171.767C586.859 196.988 607.29 217.426 632.498 217.426H680.371C705.551 217.426 726.011 196.969 726.011 171.767V126.108ZM656.435 186.987C646.829 186.987 639.041 179.2 639.041 169.593C639.041 159.986 646.828 152.199 656.435 152.199C666.041 152.199 673.829 159.986 673.829 169.593C673.829 179.2 666.041 186.987 656.435 186.987ZM656.435 178.291C661.238 178.291 665.132 174.396 665.132 169.593C665.132 164.79 661.238 160.896 656.435 160.896C651.632 160.896 647.738 164.79 647.738 169.593C647.738 174.396 651.632 178.291 656.435 178.291Z" fill="black"/>
<line x1="303" y1="142" x2="413" y2="142" stroke="#FFB51A" stroke-width="12"/>
<line x1="359" y1="199" x2="359" y2="89" stroke="#FFB51A" stroke-width="12"/>
<path d="M0.693413 282.085C6.08552 275.704 9.04194 267.743 9.04194 259.547C9.04194 255.332 8.34587 251.058 7.53468 246.024C6.72349 240.99 5.91123 235.779 5.96933 230.159C6.02742 226.939 6.43304 223.836 7.07102 220.792C4.22965 218.977 2.83855 215.523 3.99847 212.186L28.4641 140.238C29.5077 137.312 28.406 133.974 25.9133 132.159C20.5212 128.354 18.8977 121.095 22.1447 115.299L47.7703 69.5183C52.872 60.3853 63.5399 55.6434 73.6852 57.9857L82.208 59.9759C84.5845 60.5614 87.0783 60.0345 89.0493 58.6299L97.9196 52.3073C100.007 50.844 102.558 50.2585 105.05 50.7267C107.427 51.1362 109.457 52.4833 110.906 54.4148L114.906 51.2535C114.732 50.5507 114.848 49.7902 115.195 49.146C115.95 47.8 117.63 47.3308 118.964 48.0336L126.153 42.3552C126.095 41.8869 126.153 41.4187 126.327 41.0091C126.907 39.5458 128.531 38.7843 129.98 39.3698L136.53 34.1598C136.125 33.3983 136.009 32.5791 136.356 31.7014C136.936 30.1794 138.618 29.4765 140.125 30.0621C140.472 30.1794 140.821 30.413 141.168 30.5303C143.777 28.4814 146.502 26.6661 149.284 25.0267C149.226 24.4999 149.226 23.9143 149.517 23.3874C150.213 21.9241 151.951 21.3386 153.402 22.0414C153.691 22.1587 153.923 22.3337 154.156 22.5096C156.997 21.105 159.954 19.8752 162.968 18.8802C162.678 18.1774 162.678 17.3582 163.026 16.5967C163.722 15.1334 165.403 14.4892 166.853 15.1921C166.969 15.2507 167.954 15.7776 169.346 16.8314L178.796 13.7873C178.158 12.6163 178.332 11.0942 179.376 10.1579C180.594 9.10415 182.39 9.22146 183.492 10.4502C183.897 10.9184 184.188 11.4453 184.593 11.9135L189.927 10.1569C189.347 8.98581 189.522 7.52249 190.565 6.64471C191.783 5.59095 193.58 5.70826 194.681 6.93697C195.087 7.40518 195.319 7.87342 195.725 8.34163L220.654 0.262454C223.669 -0.673995 226.8 0.965312 227.843 4.06784L231.843 16.8291C232.307 18.2338 232.249 19.7567 231.611 21.1614C230.915 22.5661 229.698 23.6785 228.133 24.2054L204.885 31.7577C204.885 31.875 204.943 32.05 204.943 32.1673C204.943 33.8066 203.667 35.0939 202.102 35.1526H202.044C200.942 35.1526 199.956 34.5084 199.493 33.5133L193.753 35.3862C193.753 35.5035 193.753 35.5622 193.811 35.6785C193.811 37.3178 192.535 38.605 190.97 38.6638H190.912C189.81 38.6638 188.941 38.0196 188.419 37.1418L182.39 39.132C182.622 40.654 181.694 42.1173 180.187 42.4693C179.954 42.5279 179.781 42.5279 179.549 42.5279C178.447 42.5279 177.462 41.8837 176.998 40.8886L171.2 42.7615C171.026 42.8202 170.853 42.8788 170.678 42.9375C171.026 44.2835 170.389 45.6891 169.055 46.2747C168.649 46.4507 168.301 46.5093 167.895 46.5093C166.91 46.5093 165.982 45.9238 165.461 45.046C163.199 46.0998 160.997 47.3295 158.91 48.7342C158.968 48.9102 159.084 49.0264 159.142 49.2024C159.896 50.6071 159.432 52.4224 158.041 53.1827C157.577 53.4173 157.113 53.5336 156.65 53.5336C155.722 53.5336 154.852 53.0654 154.33 52.2452L148.01 57.338C148.59 58.6841 148.069 60.2646 146.793 61.0262C146.329 61.2608 145.865 61.3771 145.402 61.3771C144.822 61.3771 144.242 61.1425 143.778 60.7916L137.169 66.1191C137.517 67.4075 137.053 68.8122 135.836 69.3976C134.56 70.0418 133.46 69.6322 133.053 69.3976L125.226 75.7202C127.255 79.0574 127.081 83.2725 124.704 86.4337L121.979 90.0047C120.878 91.468 120.704 93.3419 121.4 94.9813L124.82 102.592C129.979 114.008 130.559 126.829 126.443 138.713L123.138 148.314C121.862 151.943 118.848 154.519 115.369 155.398L93.4546 230.038C92.411 233.434 90.1496 236.126 87.0771 237.765C85.2794 238.702 83.3664 239.17 81.3957 239.17C79.9465 239.17 78.5543 238.935 77.1632 238.409L33.3908 222.778C32.7529 224.71 31.3618 226.349 29.5641 227.228C28.5786 227.696 27.4769 227.989 26.3173 227.989C25.5631 227.989 24.7519 227.813 23.9978 227.58C23.8816 228.575 23.8235 229.57 23.8235 230.506C23.7654 234.487 24.4034 238.586 25.0994 242.976L25.2737 244.147C26.0849 249.123 26.8971 254.275 26.839 259.661C26.839 268.559 24.4625 277.516 19.9398 285.537C19.418 286.473 18.4906 287 17.3889 287H2.95328C1.79354 287 0.808051 286.356 0.344368 285.302C-0.234498 284.133 -0.0612303 282.903 0.692903 282.084L0.693413 282.085ZM121.805 70.7488L129.342 64.661C126.733 61.09 123.428 57.9288 119.254 55.1184L114.094 59.2162L121.805 70.7488ZM141.69 37.3209L135.545 42.1801C139.836 45.0492 142.734 48.6199 144.937 52.132L151.14 47.1554C148.589 43.3511 145.574 39.8378 141.69 37.3207L141.69 37.3209ZM130.733 46.0442L124.066 51.313C128.066 54.1821 131.255 57.4008 133.922 61.0316L140.357 55.88C137.805 51.7811 135.08 48.4439 130.733 46.0442H130.733ZM174.041 21.2809C176.361 24.0912 178.795 28.0131 180.65 33.4578L187.433 31.2917C186.679 26.9006 185.057 22.6269 182.39 18.5878L174.041 21.2809ZM226.334 18.6465L222.276 5.59171L199.259 13.0853C201.752 17.1243 203.375 21.3981 204.245 25.7891L226.334 18.6465ZM198.622 27.6622C197.868 23.2712 196.188 18.9974 193.52 15.0171L188.128 16.7737C190.563 20.8127 192.244 25.0865 193.057 29.4775L198.622 27.6622ZM175.2 35.2134C173.113 29.183 170.272 25.4374 168.069 23.2124L165.228 24.1489C163.315 24.7344 161.46 25.4372 159.663 26.1977C163.373 29.4762 166.04 33.4568 168.127 37.5543C168.533 37.437 168.939 37.2621 169.345 37.0861L175.2 35.2134ZM162.736 39.7804C160.532 35.6241 157.75 31.8185 153.807 29.0081C151.314 30.3541 148.937 31.9346 146.618 33.6328C150.387 36.4431 153.285 39.9553 155.778 43.7022C157.981 42.1803 160.301 40.9506 162.735 39.7804H162.736ZM78.7858 232.792C80.5835 233.436 82.4965 233.319 84.1779 232.441C85.8595 231.564 87.0762 230.099 87.6561 228.285L109.107 155.167L88.1779 149.723L88.7578 150.484C92.7578 155.518 94.0917 162.193 92.4103 168.398L82.2071 206.157C81.3959 209.259 79.2507 211.776 76.4093 213.182C74.9601 213.885 73.3947 214.236 71.7714 214.236C70.2642 214.236 68.7568 213.944 67.3647 213.299L39.9998 200.889L34.8401 217.105L78.7858 232.792ZM65.9737 144.745C61.1034 145.214 56.8141 148.492 55.1905 153.41L47.7113 176.944C52.2912 176.066 56.0598 173.958 58.9012 170.621C65.6252 162.777 66.089 150.132 65.9737 144.745ZM63.3066 174.427C58.9581 179.52 52.9871 182.33 45.7984 183.033L41.9135 195.21L69.8576 207.914C71.1906 208.5 72.699 208.5 74.0319 207.855C75.3649 207.211 76.3513 206.04 76.699 204.577L86.9022 166.818C88.12 162.427 87.1345 157.685 84.2933 154.114L78.843 147.265L71.7705 145.449C71.8866 152.007 71.0173 165.412 63.3069 174.428L63.3066 174.427ZM25.506 221.904C26.0859 222.139 26.5496 221.963 26.7819 221.846C27.0143 221.728 27.4199 221.436 27.5932 220.85L49.6242 151.595C52.1169 143.809 59.3637 138.774 67.1323 138.774C67.4798 138.774 70.0306 138.832 71.7123 139.359L111.136 149.662C113.745 150.365 116.528 148.843 117.397 146.266L120.702 136.665C124.296 126.245 123.833 114.946 119.311 104.934L115.891 97.3227C114.267 93.6933 114.731 89.5367 117.109 86.3755L119.834 82.8045C120.761 81.5748 120.819 79.8192 119.95 78.5307L106.209 58.0412C105.688 57.222 104.818 56.6952 103.89 56.5192C102.962 56.3433 101.977 56.5779 101.165 57.1048L92.2945 63.4273C88.9313 65.7695 84.757 66.6473 80.8152 65.7108L72.2924 63.7206C64.64 61.964 56.5808 65.5359 52.6971 72.4428L27.0716 118.223C25.2739 121.385 26.2023 125.365 29.1587 127.415C33.7966 130.694 35.7676 136.782 33.9129 142.168L9.44729 214.116C9.15786 214.935 9.56347 215.872 10.3747 216.165L25.506 221.904ZM15.5921 281.033C19.0703 274.301 20.9261 266.925 20.9261 259.548C20.9842 254.631 20.1719 249.772 19.3607 244.561L19.2446 243.8C18.4904 239.175 17.8535 234.784 17.9115 230.393C17.9115 228.812 18.0858 227.173 18.3171 225.475L12.5194 223.309C12.1138 225.592 11.8233 227.934 11.7652 230.334C11.7071 235.368 12.5194 240.345 13.3306 245.672C14.0847 250.238 14.8378 254.922 14.8378 259.606C14.8378 267.158 12.6345 274.651 8.63462 281.091L15.5921 281.092L15.5921 281.033Z" fill="black"/>
<path d="M223.333 43.8094C224.841 45.8583 237.943 64.1818 237.943 72.7299C237.943 82.2137 230.349 89.8822 221.014 89.8822C211.68 89.8822 204.084 82.155 204.084 72.7299C204.084 64.1826 217.187 45.859 218.694 43.8094C219.739 42.2875 222.232 42.2875 223.333 43.8094ZM221.015 84.0868C227.16 84.0868 232.147 78.9939 232.147 72.7876C232.147 68.4553 226.001 58.0349 221.015 50.6586C215.971 58.0937 209.883 68.5138 209.883 72.7876C209.825 78.9939 214.869 84.0868 221.015 84.0868Z" fill="black"/>
</svg>
