<svg width="292" height="287" viewBox="0 0 292 287" fill="none" xmlns="http://www.w3.org/2000/svg">
<path fill-rule="evenodd" clip-rule="evenodd" d="M156.544 69.5767H234.817V4.34885C234.817 1.94656 236.764 0.000485544 239.165 0.000485544C241.566 0.000485544 243.513 1.94659 243.513 4.34885V69.5767H269.579C281.6 69.5767 291.347 79.3137 291.347 91.3292V104.354C291.347 114.879 283.888 123.649 273.953 125.669V171.765C273.953 201.771 249.599 226.121 219.617 226.121H199.262C182.417 262.85 145.611 287 104.363 287C46.7248 287 0 240.275 0 182.637C0 180.235 1.94705 178.289 4.34836 178.289C6.74967 178.289 8.69672 180.235 8.69672 182.637C8.69672 235.473 51.5272 278.303 104.363 278.303C140.798 278.303 173.456 257.746 189.602 226.121H171.745C141.734 226.121 117.409 201.788 117.409 171.765V125.666C107.484 123.643 100.015 114.871 100.015 104.353V91.3287C100.015 79.3067 109.746 69.5762 121.783 69.5762H147.849V4.34836C147.849 1.94608 149.795 0 152.197 0C154.598 0 156.545 1.9461 156.545 4.34836L156.544 69.5767ZM156.544 78.2734V95.6671C156.544 98.0684 154.597 100.015 152.195 100.015C149.793 100.015 147.847 98.0684 147.847 95.6671V78.2734H121.781C114.547 78.2734 108.71 84.1108 108.71 91.3289V104.353C108.71 111.564 114.561 117.41 121.781 117.41H269.579C276.814 117.41 282.65 111.572 282.65 104.353V91.3289C282.65 84.1193 276.798 78.2734 269.579 78.2734H243.513V95.6671C243.513 98.0684 241.566 100.015 239.165 100.015C236.764 100.015 234.817 98.0684 234.817 95.6671V78.2734H156.544ZM265.255 126.108H126.103V171.767C126.103 196.988 146.534 217.426 171.742 217.426H219.615C244.795 217.426 265.255 196.969 265.255 171.767V126.108ZM195.679 186.987C186.073 186.987 178.285 179.2 178.285 169.593C178.285 159.986 186.072 152.199 195.679 152.199C205.285 152.199 213.074 159.986 213.074 169.593C213.074 179.2 205.285 186.987 195.679 186.987ZM195.679 178.29C200.482 178.29 204.377 174.396 204.377 169.593C204.377 164.79 200.482 160.896 195.679 160.896C190.876 160.896 186.982 164.79 186.982 169.593C186.982 174.396 190.876 178.29 195.679 178.29Z" fill="black"/>
</svg>
