<svg width="309" height="286" viewBox="0 0 309 286" fill="none" xmlns="http://www.w3.org/2000/svg">
<path d="M90.3085 58.4625C88.902 58.4749 87.5587 59.0428 86.5706 60.0414C86.5706 60.0414 65.1229 81.711 43.6377 109.349C22.1531 136.985 0 169.958 0 196.649C0 246.483 40.5137 287 90.3514 287C140.186 287 180.703 246.486 180.703 196.649C180.703 169.96 158.55 136.989 137.065 109.349C115.58 81.7124 94.1322 60.0414 94.1322 60.0414H94.1287C93.1212 59.0217 91.7428 58.452 90.3099 58.4625H90.3085ZM90.3489 71.8739C93.6367 75.2391 109.529 91.24 128.673 115.865C149.706 142.921 170.07 176.371 170.07 196.643C170.07 240.734 134.44 276.363 90.3494 276.363C46.258 276.363 10.6292 240.734 10.6292 196.643C10.6292 176.369 30.9922 142.92 52.0254 115.865C71.1701 91.2382 87.0624 75.2388 90.3499 71.8739H90.3489Z" fill="black"/>
<path d="M249.772 0C248.346 0.0105492 246.985 0.59425 245.993 1.61929C245.993 1.61929 232.515 15.4173 219.005 33.0501C205.495 50.6829 191.332 71.5275 191.332 89.5816C191.332 122.194 217.527 148.809 249.794 148.809C282.062 148.809 308.257 122.194 308.257 89.5816C308.257 71.5289 294.093 50.6838 280.583 33.0501C267.073 15.4173 253.595 1.61929 253.595 1.61929C252.593 0.585473 251.215 0 249.775 0H249.772ZM249.793 13.4537C252.806 16.6096 260.985 24.9328 272.152 39.5081C285.215 56.559 297.624 77.8537 297.624 89.5808C297.624 116.532 276.231 138.182 249.793 138.182C223.355 138.182 201.962 116.533 201.962 89.5808C201.962 77.8519 214.371 56.5572 227.434 39.5081C238.602 24.9328 246.779 16.6097 249.793 13.4537Z" fill="black"/>
<path d="M37.1214 191.329C35.7131 191.35 34.3698 191.932 33.3888 192.943C32.4077 193.956 31.868 195.317 31.8908 196.727C31.9137 224.84 51.3627 249.212 78.5383 254.982L78.5366 254.98C81.4094 255.594 84.2347 253.764 84.8482 250.891C85.4618 248.02 83.6298 245.193 80.7587 244.581C58.5143 239.858 42.536 219.954 42.5167 196.727C42.5395 195.289 41.9787 193.902 40.9607 192.885C39.9445 191.867 38.5573 191.306 37.1191 191.329L37.1214 191.329Z" fill="black"/>
<path d="M223.135 85.0359C221.727 85.057 220.384 85.6389 219.402 86.6499C218.421 87.6626 217.882 89.0234 217.905 90.4334C217.917 105.689 228.494 118.972 243.294 122.114C246.167 122.728 248.992 120.896 249.604 118.025C250.218 115.152 248.388 112.326 245.515 111.713C235.65 109.617 228.542 100.804 228.533 90.4339C228.556 88.994 227.995 87.6085 226.977 86.5923C225.961 85.5743 224.574 85.0135 223.135 85.0363L223.135 85.0359Z" fill="black"/>
</svg>
