<svg width="262" height="126" viewBox="0 0 262 126" fill="none" xmlns="http://www.w3.org/2000/svg">
<path d="M260.582 60.5129C260.307 54.434 255.337 49.4614 249.264 48.9078L199.853 44.4863L163.691 7.73675C158.723 2.76411 151.822 0 144.921 0H114.005C108.485 0 104.068 4.42144 104.068 9.94725V43.1043H8.83423C3.86651 43.1043 0 46.9726 0 51.9473V87.5906C0 94.4984 5.52028 100.024 12.4213 100.024H36.7132C37.8165 114.393 49.9625 125.998 64.5926 125.998C79.2227 125.998 91.3684 114.669 92.472 100.024L169.763 100.026C170.866 114.395 183.012 126 197.642 126C212.272 126 224.418 114.671 225.522 100.026H249.816C256.992 100.026 262.514 93.9472 261.962 87.0394L260.582 60.5129ZM64.5946 110.802C57.141 110.802 51.0682 104.723 51.0682 97.262C51.0682 89.8011 57.141 83.7222 64.5946 83.7222C72.0481 83.7222 78.121 89.8011 78.121 97.262C78.121 104.723 72.0481 110.802 64.5946 110.802ZM123.943 19.6186H144.921C146.577 19.6186 148.51 20.4474 149.614 21.5538L170.592 42.8303L123.943 42.8284L123.943 19.6186ZM197.645 110.802C190.192 110.802 184.119 104.723 184.119 97.262C184.119 89.8011 190.192 83.7222 197.645 83.7222C205.099 83.7222 211.172 89.8011 211.172 97.262C211.17 104.723 205.097 110.802 197.645 110.802Z" fill="black"/>
<path d="M98.4428 35.726C95.5591 33.8849 92.3527 32.9891 89.2265 32.1199L87.9601 31.7614C84.9422 30.8922 81.8971 29.8432 79.9304 27.8736C79.0146 26.9531 78.2331 25.751 77.4245 24.4977C76.0497 22.4009 74.5148 19.9967 71.8734 18.5132C67.4807 16.0064 62.2804 17.1324 58.7778 18.206L57.1075 18.7176C54.2509 19.6125 51.5565 20.4827 49.0236 20.1755C47.703 20.0224 46.3293 19.5108 44.9005 18.9734C44.0118 18.6406 43.0949 18.3087 42.1792 18.0529C38.2715 16.9023 34.7957 17.2854 32.3439 19.1019C30.9432 20.1508 30.1346 21.5059 29.4072 22.6822C28.9222 23.4753 28.4644 24.2417 27.9523 24.7031C27.0095 25.5465 25.4735 25.8537 23.695 26.238C21.8082 26.6469 19.653 27.0815 17.7663 28.3349C14.6941 30.3803 13.4547 33.8333 12.7274 36.5959L12.5932 37.0819C12.4319 37.7209 12.2695 38.3353 12 39H102C101.057 37.7723 99.8705 36.6465 98.4428 35.726Z" fill="black"/>
</svg>
