<svg width="717" height="711" viewBox="0 0 717 711" fill="none" xmlns="http://www.w3.org/2000/svg">
<path d="M716.8 242.665L604.8 89.5987L439.04 0L295.68 73.9213L133.653 140.375L0 362.135L47.7867 475.629L53.7607 575.681L147.839 632.427L264.318 636.906L395.734 710.827L616.001 645.119L669.017 537.598L617.495 436.795L716.8 242.665ZM576.427 106.025L672 232.213L554.027 212.052L479.36 150.079L459.948 44.8027L576.427 106.025ZM273.28 309.119L298.665 179.197L322.561 318.077L273.28 309.119ZM422.613 44.7987L427.843 91.0907L324.056 97.0647L422.613 44.7987ZM630.187 529.385L464.427 543.573L338.989 340.48L476.376 465.917L578.668 442.772L630.187 529.385Z" fill="black"/>
</svg>
