<svg width="502" height="166" viewBox="0 0 502 166" fill="none" xmlns="http://www.w3.org/2000/svg">
<path d="M501.241 52.9896C498.872 44.1251 479.768 42.5469 469.705 40.2604C459.794 38.0156 457.278 27.974 422.976 36.8907L328.033 62.3333L165.327 0L141.687 8.41146L207.832 94.5368L146.843 110.875C146.556 110.959 132.848 114.605 115.369 119.287L25.0467 71.8083L0 78.428L42.7187 138.824C35.8124 141.168 32.802 146.038 34.6717 152.969C36.6457 160.344 44.4269 163.943 48.4584 164.094C75.4011 165.042 156.016 169.386 197.445 159.751L197.502 159.813L438.609 95.2145L441.922 94.277C475.755 84.251 503.552 61.5797 501.239 52.9903L501.241 52.9896Z" fill="black"/>
</svg>
