<svg width="740" height="449" viewBox="0 0 740 449" fill="none" xmlns="http://www.w3.org/2000/svg">
<path d="M731.728 113.705C719.035 107.731 722.02 107.731 695.14 64.4238C695.14 64.4238 698.124 56.955 694.395 41.2785C694.395 40.5337 693.65 39.7837 693.65 38.2941C704.848 33.8149 708.582 21.8674 714.557 15.1487C721.276 6.18513 696.636 -1.27793 666.77 13.6539C664.531 11.4143 657.812 3.20087 657.812 3.20087C651.838 -0.533535 645.119 -1.27833 638.4 2.45608C626.452 9.92488 605.545 28.5921 561.493 28.5921C517.441 28.5921 507.733 12.9094 458.452 12.9094C409.171 12.9094 369.597 27.8414 305.385 27.8414C241.172 27.8414 159.785 20.3726 135.145 18.883C125.437 18.1382 117.224 18.1382 109.76 18.1382C62.7187 18.1382 42.5627 24.857 30.6147 47.2582C11.948 81.6076 7.46933 138.352 14.932 157.764C22.4008 177.925 14.932 276.482 14.932 276.482C14.932 276.482 0 301.122 0 332.482C0 332.482 19.412 335.467 23.896 307.097C26.8804 288.43 32.1096 139.097 32.1096 139.097H38.0836C42.5628 175.685 63.4689 201.816 39.5784 258.566C29.8701 280.968 54.5104 374.301 54.5104 388.488C54.5104 398.196 55.2552 419.848 55.2552 433.29C56.7448 441.493 61.9688 446.722 68.6925 446.722H95.5725C91.0933 416.108 76.9059 422.826 76.9059 406.405C76.9059 389.978 80.6403 310.832 85.1195 280.968C85.8642 274.994 88.8539 269.77 93.3331 265.285C93.3331 265.285 100.052 257.071 117.229 250.353C118.724 249.608 119.469 251.848 117.974 252.592C112 256.327 105.281 260.806 100.802 266.78C99.3071 276.489 99.307 286.942 103.786 297.395C112.745 317.556 143.36 377.291 147.838 395.958C150.823 408.65 154.557 425.822 156.052 437.026C157.547 443 162.771 447.479 168.745 447.479H199.359C196.375 417.615 177.709 428.067 171.734 404.172C166.505 384.011 152.322 310.839 156.802 289.188C158.297 282.469 166.51 269.776 176.963 256.334C186.671 260.068 198.614 265.292 214.297 270.522C265.067 288.443 350.937 267.537 394.243 263.803H397.228C394.988 300.391 390.509 354.152 385.28 364.605C377.811 380.288 370.348 387.007 370.348 387.007C370.348 387.007 368.853 408.657 368.853 413.143V439.279C368.853 443.758 372.587 447.492 377.067 447.492H406.187C406.931 429.571 387.52 421.356 391.255 413.143C394.989 404.929 406.937 375.064 409.921 362.372C411.416 355.654 421.119 348.184 427.843 343.706C428.587 342.961 430.827 325.784 431.577 315.331C431.577 313.091 435.311 313.091 435.311 315.331V318.315V336.237C436.056 354.158 436.056 369.835 436.806 377.305C447.259 387.013 447.259 422.851 446.514 439.278C446.514 443.757 450.249 448.237 454.728 448.237H486.832C485.337 429.57 470.405 427.33 470.405 413.887C470.405 354.153 476.379 349.674 484.593 328.767C486.088 324.288 488.328 317.569 491.312 310.1L511.473 239.169C512.218 236.929 515.208 237.674 514.458 239.913L509.968 284.695C545.807 281.71 563.728 257.815 570.447 239.892C578.661 217.491 595.832 168.209 603.302 157.012C615.249 139.091 615.249 126.397 638.395 133.867H639.14C652.577 139.096 670.5 143.575 692.156 142.825C692.156 142.825 692.156 154.773 707.838 152.533C722.77 150.294 725.01 150.294 729.489 149.549C733.968 148.804 733.223 142.83 736.208 136.112C737.703 129.393 744.422 119.685 731.729 113.71L731.728 113.705Z" fill="#481A77"/>
</svg>
