<svg width="389" height="480" viewBox="0 0 389 480" fill="none" xmlns="http://www.w3.org/2000/svg">
<path d="M379.859 451.991L372.684 447.126C374.456 443.479 375.634 439.569 376.174 435.542C393.275 307.605 393.275 177.931 376.174 49.9939C375.435 44.4499 373.481 39.1382 370.461 34.4428L379.859 28.0419V28.0463C383.642 25.4975 386.091 21.3776 386.534 16.8157C386.977 12.2538 385.365 7.73214 382.145 4.49624C378.934 1.25119 374.447 -0.373625 369.921 0.0727151C365.394 0.519078 361.306 2.98753 358.777 6.79947L350.778 18.8961C346.694 17.4722 342.398 16.758 338.079 16.7848H53.9887C48.1333 16.7803 42.353 18.1373 37.0998 20.753L27.8295 6.80404V6.79958C25.3048 2.98763 21.2123 0.519168 16.6857 0.0728284C12.1591 -0.373546 7.67237 1.25118 4.46148 4.49634C1.24152 7.73248 -0.370736 12.2543 0.0721526 16.8158C0.515064 21.3777 2.96885 25.4977 6.7469 28.0464L20.274 37.1345C18.1524 41.1161 16.7527 45.4503 16.146 49.9316C-0.950481 177.869 -0.950481 307.543 16.146 435.48C16.6863 439.506 17.8645 443.416 19.6406 447.063L12.4653 451.929V451.924C8.6518 454.455 6.16705 458.575 5.70205 463.15C5.24141 467.726 6.84475 472.27 10.0692 475.519C13.2982 478.773 17.8026 480.389 22.3422 479.92C26.8821 479.452 30.9747 476.952 33.4816 473.109L38.6239 465.364C43.4473 467.507 48.656 468.618 53.9266 468.627H338.392C343.662 468.618 348.875 467.507 353.694 465.364L358.836 473.109H358.841C361.348 476.952 365.436 479.452 369.976 479.92C374.516 480.389 379.025 478.773 382.249 475.519C385.478 472.269 387.081 467.725 386.616 463.15C386.151 458.575 383.671 454.455 379.857 451.924L379.859 451.991Z" fill="black"/>
<path d="M262.394 251.088L263.499 247.731H260.008C259.519 247.731 248.493 247.857 237.459 267.773C232.352 261.125 221.034 241.408 229.309 216.526C239.57 185.676 259.191 183.855 260.008 183.855H275L260.831 180.286C260.466 180.16 251.722 178 238.923 178C223.376 178 200.71 182.751 180.971 204.142C158.006 229.037 155.47 251.65 156.44 263.775C152.216 257.324 146.931 245.678 146.931 226.381V220.936L142.989 224.455C141.801 225.465 114 249.678 114 294.544C114 331.177 136.032 361.232 170.038 371.113L179.599 373.884L172.549 366.899C162.375 356.833 168.602 336.114 172.61 325.844C174.385 328.503 177.44 330.668 182.414 330.668C188.072 330.668 191.398 322.667 193.188 304.718C193.766 298.929 194.064 293.102 194.219 288.648C214.742 319.563 216.697 339.544 214.503 351.077C212.979 359.099 208.857 365.646 202.898 369.504L194.417 375L204.479 374.153C236.094 371.44 268.788 349.209 268.788 316.692C268.788 308.086 266.281 300.96 263.856 294.124C259.857 282.845 255.718 271.165 262.396 251.087L262.394 251.088ZM212.126 367.979C215.745 363.657 218.268 358.206 219.442 352.025C221.966 338.749 219.626 315.357 193.951 279.325L189.421 272.924V280.793C189.421 308.158 185.164 325.622 182.339 325.622C175.822 325.622 175.257 319.821 175.257 318.674L175.255 307.992L170.602 317.55C169.948 318.864 156.457 346.251 164.307 363.854C136.54 352.731 119.068 326.275 119.068 294.542C119.068 262.16 134.839 240.765 142.419 232.341C144.097 263.419 158.624 274.034 159.278 274.496L165.748 279.063L163.117 271.593C163.013 271.3 153.155 241.965 184.653 207.825C203.157 187.768 224.377 183.56 238.916 183.56C242.863 183.56 246.416 183.867 249.4 184.281C241.551 187.971 231.131 196.531 224.533 216.366C213.143 250.612 235.224 273.27 236.171 274.216L238.641 276.691L240.202 273.561C246.382 261.176 252.456 256.188 256.213 254.185C251.075 273.163 255.328 285.156 259.115 295.828C261.501 302.555 263.755 308.909 263.755 316.648C263.753 343.558 238.71 362.787 212.126 367.979Z" fill="white"/>
</svg>
