<svg width="178" height="126" viewBox="0 0 178 126" fill="none" xmlns="http://www.w3.org/2000/svg">
<path d="M36.2234 102.326C35.8261 101.841 35.8261 101.244 36.2234 100.759L37.9586 98.707H32.2407V117.226H53.7567V103.126H38.1819C37.3702 103.13 36.6208 102.824 36.2234 102.326Z" fill="#481A77"/>
<path d="M39.2709 97.1413L62.634 69.0651L59.1186 64.8511L62.9677 64.7101L50.7516 64.2401C49.9802 64.2095 49.2849 63.8991 48.917 63.4194C48.5492 62.9407 48.5616 62.3603 48.9496 61.8893L61.1209 47.0052L50.3744 33.922H64.5244L43.0084 11.251L21.4941 33.9539H35.6007L10.746 64.2403L26.8782 64.8195L0 97.1427L39.2709 97.1413Z" fill="#481A77"/>
<path d="M141.777 100.762C142.174 101.246 142.174 101.844 141.777 102.328C141.381 102.81 140.653 103.108 139.863 103.111H124.288V117.51H145.804V98.9594H140.285L141.777 100.762Z" fill="#481A77"/>
<path d="M167.253 64.5215L142.399 34.2351H156.527L134.991 11.5322L113.475 34.2351H127.603L116.967 47.1772L129.05 61.8887C129.439 62.3631 129.449 62.9456 129.076 63.4254C128.704 63.9062 128.002 64.2144 127.224 64.2396L111.826 64.8035L118.814 65.0702L115.477 69.174L138.974 97.376H178L151.122 65.1172L167.253 64.5215Z" fill="#481A77"/>
<path d="M76.2937 103.112H101.726V125.345H76.2937V103.112Z" fill="#481A77"/>
<path d="M108.068 63.3772L127.136 62.6723L97.7218 26.8546H114.431L88.9993 0L63.5673 26.8546H80.2769L50.8625 62.6723L69.9309 63.3772L38.1358 101.545H139.863L108.068 63.3772Z" fill="#481A77"/>
</svg>
