<svg width="710" height="224" viewBox="0 0 710 224" fill="none" xmlns="http://www.w3.org/2000/svg">
<path d="M707.305 107.526C706.56 97.0731 698.346 88.1141 687.143 87.3648L599.039 79.896L534.081 14.188C525.122 5.22959 513.174 0 500.482 0L393.701 0.00520833C378.769 0.00520833 363.837 7.47401 354.873 20.1665L313.061 79.1505L263.034 81.3953C251.836 82.1401 242.127 91.8484 242.127 103.046V155.311C242.127 167.259 251.836 176.962 263.778 176.962H307.085C309.324 203.098 330.981 223.254 357.111 223.254C383.247 223.254 404.898 203.093 407.138 176.962H544.525C546.764 203.098 568.421 223.254 594.551 223.254C620.687 223.254 642.338 203.093 644.578 176.962H687.885C700.577 176.962 710.286 166.509 709.535 153.817L707.305 107.526ZM357.865 197.125C344.427 197.125 333.969 186.672 333.969 173.229C333.969 159.791 344.422 149.333 357.865 149.333C371.302 149.333 381.761 159.786 381.761 173.229C381.761 186.671 370.558 197.125 357.865 197.125ZM428.053 76.1661H357.865L384.001 39.5781C386.24 36.5937 389.975 34.3489 393.709 34.3489H428.058L428.053 76.1661ZM463.146 76.1661V34.3541H500.479C503.464 34.3541 506.453 35.8489 508.693 38.0885L546.772 76.1672L463.146 76.1661ZM595.307 197.125C581.87 197.125 571.411 186.672 571.411 173.229C571.411 159.791 581.865 149.333 595.307 149.333C608.745 149.333 619.203 159.786 619.203 173.229C619.198 186.671 608 197.125 595.307 197.125Z" fill="black"/>
<path d="M195.838 120.966C194.343 112.008 190.609 103.794 183.89 98.5648C186.13 92.5908 187.624 85.8722 186.874 78.4035C186.13 50.0288 162.235 28.3768 134.609 29.1222C127.14 29.1222 120.421 31.3618 114.448 34.3514C107.729 20.1634 93.5412 11.206 77.8598 11.95C68.1516 11.95 59.9385 15.6844 53.2198 21.6583C48.7406 20.1635 43.5116 19.4187 38.2878 19.4187C16.6372 20.1635 -0.540171 38.0854 0.209163 59.736C1.70396 81.392 19.6252 98.564 41.2772 97.8187C44.2616 97.8187 47.2512 97.0739 50.2356 96.3239C52.4752 122.46 75.6209 143.365 102.501 141.871C108.475 141.871 114.449 140.376 120.422 138.136C125.651 154.563 141.329 166.511 159.25 166.511C162.985 166.511 165.969 165.766 169.703 165.016C174.933 172.485 183.891 176.964 193.599 176.964C208.531 176.219 221.225 163.527 220.479 148.589C218.24 134.401 208.531 123.204 195.839 120.964L195.838 120.966Z" fill="black"/>
</svg>
