<svg width="600" height="224" viewBox="0 0 600 224" fill="none" xmlns="http://www.w3.org/2000/svg">
<path d="M597.177 107.526C596.433 97.0731 588.219 88.1141 577.016 87.3648L488.912 79.896L423.953 14.188C414.995 5.22959 403.047 0 390.355 0L283.573 0.00520833C268.641 0.00520833 253.709 7.47401 244.745 20.1665L202.933 79.1505L152.907 81.3953C141.709 82.1401 132 91.8484 132 103.046V155.311C132 167.259 141.708 176.962 153.651 176.962H196.957C199.197 203.098 220.853 223.254 246.984 223.254C273.12 223.254 294.771 203.093 297.011 176.962H434.397C436.637 203.098 458.293 223.254 484.424 223.254C510.56 223.254 532.211 203.093 534.451 176.962H577.757C590.45 176.962 600.159 166.509 599.408 153.817L597.177 107.526ZM247.737 197.125C234.3 197.125 223.841 186.672 223.841 173.229C223.841 159.791 234.294 149.333 247.737 149.333C261.175 149.333 271.633 159.786 271.633 173.229C271.633 186.671 260.43 197.125 247.737 197.125ZM317.925 76.1661H247.737L273.873 39.5781C276.113 36.5937 279.847 34.3489 283.582 34.3489H317.931L317.925 76.1661ZM353.019 76.1661V34.3541H390.352C393.336 34.3541 396.326 35.8489 398.566 38.0885L436.644 76.1672L353.019 76.1661ZM485.18 197.125C471.743 197.125 461.284 186.672 461.284 173.229C461.284 159.791 471.737 149.333 485.18 149.333C498.617 149.333 509.076 159.786 509.076 173.229C509.071 186.671 497.873 197.125 485.18 197.125Z" fill="black"/>
<path d="M99.4579 136.502C98.6981 131.943 96.7997 127.763 93.3844 125.102C94.5228 122.061 95.2827 118.642 94.9014 114.841C94.5228 100.401 82.376 89.3818 68.3329 89.7611C64.5362 89.7611 61.1206 90.9008 58.0841 92.4223C54.6686 85.2018 47.4564 80.6433 39.4849 81.0219C34.5498 81.0219 30.3748 82.9224 26.9594 85.9626C24.6825 85.2019 22.0243 84.8228 19.3689 84.8228C8.36301 85.2019 -0.368911 94.3226 0.0120049 105.341C0.771871 116.362 9.88194 125.101 20.8885 124.722C22.4056 124.722 23.9253 124.343 25.4424 123.961C26.5809 137.262 38.3468 147.901 52.011 147.14C55.0478 147.14 58.0846 146.38 61.1211 145.24C63.7793 153.6 71.7488 159.68 80.8589 159.68C82.7573 159.68 84.2744 159.301 86.1726 158.92C88.8309 162.721 93.385 165 98.3199 165C105.91 164.621 112.363 158.162 111.984 150.56C110.846 143.339 105.911 137.641 99.4586 136.501L99.4579 136.502Z" fill="black"/>
</svg>
