<svg width="422" height="225" viewBox="0 0 422 225" fill="none" xmlns="http://www.w3.org/2000/svg">
<path d="M404.309 97.2772C399.497 79.6318 383.164 67.0892 364.205 67.3812L330.227 68.402L310.101 68.9853L76.7678 76.2771L41.4758 23.0477C40.1633 21.0061 37.83 19.8395 35.3508 19.8395H7.20544C4.8721 19.8395 2.68464 21.0061 1.3721 22.7561C0.0595953 24.652 -0.377905 26.9853 0.351269 29.3187L27.0393 113.611L13.9142 128.632C12.0184 130.819 11.5809 133.882 12.7476 136.507C13.9142 139.132 16.5393 140.736 19.3101 140.736H203.203V143.069L139.182 212.34C137.286 214.528 136.703 217.59 137.87 220.215C139.036 222.84 141.661 224.59 144.578 224.59H186.87C188.328 224.59 189.641 224.152 190.807 223.423L319.725 140.735H400.517C412.329 140.589 421.954 130.819 421.954 119.006C422.246 108.36 414.517 99.3185 404.309 97.2772Z" fill="#FFB51A"/>
<path d="M208.309 63.5838L314.184 60.2297L199.996 0.875C198.975 0.291667 197.808 0 196.642 0H162.371C159.454 0 156.829 1.74999 155.663 4.52079C154.496 7.29159 155.225 10.3541 157.267 12.3957L208.309 63.5838Z" fill="#FFB51A"/>
</svg>
